<svg xmlns="http://www.w3.org/2000/svg" width="40" height="40" viewBox="0 0 24 24" fill="none">
  <path d="M12 15.5a3.5 3.5 0 1 0 0-7 3.5 3.5 0 0 0 0 7Z" stroke="#2563eb" stroke-width="2"/>
  <path d="M19.4 15a8.6 8.6 0 0 0 .1-6l-2 .3a6.9 6.9 0 0 0-1.1-1.9l1.2-1.6a8.6 8.6 0 0 0-5.2-2.2l-.7 1.9a6.9 6.9 0 0 0-2.2 0L8.8 3.6a8.6 8.6 0 0 0-5.2 2.2l1.2 1.6a6.9 6.9 0 0 0-1.1 1.9l-2-.3a8.6 8.6 0 0 0 .1 6l2-.3a6.9 6.9 0 0 0 1.1 1.9l-1.2 1.6a8.6 8.6 0 0 0 5.2 2.2l.7-1.9a6.9 6.9 0 0 0 2.2 0l.7 1.9a8.6 8.6 0 0 0 5.2-2.2l-1.2-1.6a6.9 6.9 0 0 0 1.1-1.9l2 .3Z" stroke="#2563eb" stroke-width="2" stroke-linejoin="round"/>
</svg>